<?xml version="1.0" encoding="UTF-8" standalone="no"?>
<!-- Created with Inkscape (http://www.inkscape.org/) -->

<svg
   xmlns:dc="http://purl.org/dc/elements/1.1/"
   xmlns:cc="http://creativecommons.org/ns#"
   xmlns:rdf="http://www.w3.org/1999/02/22-rdf-syntax-ns#"
   xmlns:svg="http://www.w3.org/2000/svg"
   xmlns="http://www.w3.org/2000/svg"
   xmlns:sodipodi="http://sodipodi.sourceforge.net/DTD/sodipodi-0.dtd"
   xmlns:inkscape="http://www.inkscape.org/namespaces/inkscape"
   width="744.09448"
   height="240"
   id="svg2"
   version="1.1"
   inkscape:version="0.48.4 r9939"
   sodipodi:docname="New document 1">
  <defs
     id="defs4" >
	 <style>
	 .c{
	 fill:none;
	 stroke:#fff1f1;
	 stroke-width:4.35150098999999990;
	 stroke-miterlimit:4;
	 stroke-opacity:1;
	 stroke-dasharray:1400;
	 stroke-dashoffset:0;
	 display:inline;
	 -webkit-animation: dash 2s linear forwards;
	 }
	 .c{
	 
	 }
	 @-webkit-animation dash{
	 from{
	 stroke-dashoffset:1400;
	 }
	 to{
	 stroke-dashoffset:0;
	 }
	 }
	 
	 </style>
	 
	 </defs>
  <sodipodi:namedview
     id="base"
     pagecolor="#ffffff"
     bordercolor="#666666"
     borderopacity="1.0"
     inkscape:pageopacity="0.0"
     inkscape:pageshadow="2"
     inkscape:zoom="0.91738281"
     inkscape:cx="204.95103"
     inkscape:cy="171.18161"
     inkscape:document-units="px"
     inkscape:current-layer="layer1"
     showgrid="false"
     inkscape:window-width="1600"
     inkscape:window-height="838"
     inkscape:window-x="-8"
     inkscape:window-y="-8"
     inkscape:window-maximized="1" />
  <metadata
     id="metadata7">
    <rdf:RDF>
      <cc:Work
         rdf:about="">
        <dc:format>image/svg+xml</dc:format>
        <dc:type
           rdf:resource="http://purl.org/dc/dcmitype/StillImage" />
        <dc:title></dc:title>
      </cc:Work>
    </rdf:RDF>
  </metadata>
  <g
     inkscape:label="Layer 1"
     inkscape:groupmode="layer"
     id="layer1"
     transform="translate(0,-812.36218)">
    <path
       class="c"
       d="m 118.72813,829.73803 148.77736,0.15259 -0.0982,48.80061 c -40.64928,1.7648 -100.97706,-0.4076 -148.44788,1.1508 -12.10538,0.3973 -21.297914,5.625 -26.487661,11.1217 -5.209154,3.2516 -14.452704,14.2256 -14.753936,40.33219 0.108579,8.5783 -0.263379,23.31442 0.251329,40.41347 0.152169,5.054 -0.411465,10.4371 -0.06895,16.2959 39.142558,1.7546 76.936878,0.9632 121.925168,0.4925 26.97281,-0.282 32.59622,-0.017 49.28217,-0.099 6.19637,-0.031 12.43645,0 18.72844,0.1969 l 0.1902,48.75821 -235.27802,0 0,-121.42987 c 9.702259,-51.6732 24.551186,-61.6019 47.043461,-75.7295 4.936137,-3.10041 10.64883,-5.20844 25.562239,-8.93629 4.4521,-2.5311 9.27481,-0.68254 13.37415,-1.51783 z"
       id="firstc"
       inkscape:connector-curvature="0"
       sodipodi:nodetypes="cccsccscssccccsccc"
       />
    <path
       class="c d"
       id="rect3014-5"
       d="m 181.7213,895.30253 -58.09065,0.035 -2.24302,0 0,0.7063 c -9.25459,3.2667 -11.71301,5.9321 -15.51111,9.2172 -4.31642,3.7336 -8.712939,9.5449 -11.253172,22.70759 l -0.03802,0.1766 0,0.1766 0,41.21287 0,2.1189 2.243028,0 60.789894,0 c 3.11829,0 5.77078,-0.4723 8.55392,-2.50745 l 0.038,0.035 c 3.33924,-1.8385 6.92199,-3.1501 10.11263,-6.7452 3.19064,-3.5951 5.79395,-9.1934 8.13573,-19.49392 l 0.038,-0.2119 0,-0.2472 -0.53224,-45.09749 -0.038,-2.0835 -2.20501,0 z m -2.20501,4.2025 0.49424,42.73129 c -2.25711,9.85682 -4.71017,14.76272 -7.18531,17.55162 -2.49027,2.806 -5.21621,3.7657 -8.89609,5.7917 l -0.15206,0.1059 -0.15207,0.1059 c -2.23006,1.7377 -2.92542,1.6599 -6.00675,1.6599 l -58.508845,0 0,-38.88202 c 2.428245,-12.45629 6.030305,-16.96749 9.808505,-20.23559 4.2352,-3.6632 5.27498,-5.5031 15.09293,-8.7934 l 55.50545,-0.035 z m -12.46972,16.1037 -36.68682,0.7063 -0.1901,0 -0.15207,0.071 c -6.57883,1.8431 -7.78244,2.6165 -10.37875,4.5203 -2.68374,1.96779 -5.44135,5.08489 -7.03323,12.07779 l -0.0381,0.1058 0,0.1413 0,23.27272 0,1.2007 1.2926,0 37.56121,0 c 0.0137,2e-4 0.0245,-2e-4 0.038,0 5.04816,0.086 8.58766,-1.1219 11.06308,-3.92 2.48206,-2.8056 3.96149,-6.93742 5.81666,-12.74882 l 0.038,-0.1412 0,-0.1766 0,-23.90829 0,-1.2008 -1.33062,0 z m -1.25458,2.4367 0,22.53109 c -1.80372,5.6264 -3.32378,9.47312 -5.28442,11.68932 -1.9896,2.2489 -4.4029,3.1222 -9.04816,3.0371 l -36.30664,0 0,-21.96602 c 1.50367,-6.4825 3.73171,-8.8354 6.08278,-10.5592 2.57472,-1.88799 3.09407,-2.27259 9.46636,-4.06129 l 35.09008,-0.671 z"
       inkscape:connector-curvature="0"
        />
    <path
       class="c"
       d="m 194.54562,897.44333 13.41242,0 c 20.9823,7.2406 39.83934,25.47039 57.60653,46.85789 l 0.002,-46.85789 15.99643,0 -0.28481,72.38646 -17.32354,0 c -8.49061,-12.50425 -16.18376,-25.84327 -30.32048,-36.53717 -8.31644,-6.2911 -15.28792,-13.22119 -24.06533,-15.15609 l -0.66329,51.69326 -14.64545,0 z"
       id="n"
       inkscape:connector-curvature="0"
       sodipodi:nodetypes="cccccccscccc"
       />
    <path
       class="c"
       d="m 291.37276,925.20962 c 6.34386,-23.35379 17.33015,-24.90339 27.81343,-27.76629 l 51.98509,0 0,18.9206 c -18.95649,-0.269 -34.74896,-0.534 -45.12985,-0.3743 -11.64528,0.1787 -16.1189,5.6976 -17.39969,8.03159 0.26357,9.0463 -0.31262,24.70922 0,30.23302 4.15752,0.037 13.78736,0.2509 20.49842,0 13.16369,-0.4924 29.08286,0.078 42.60086,0 l -0.56974,15.30655 -79.79852,0 c 0,-14.78385 0,-29.56757 0,-44.35117 z"
       id="c"
       inkscape:connector-curvature="0"
       sodipodi:nodetypes="ccccsccscccc"
        />
    <path
       class="c"
       d="m 381.22683,897.44333 81.378,0 0,18.0343 -65.26352,-0.4432 0.16804,11.01699 63.74539,0.7216 0.14158,16.1806 -64.05498,0.3233 c 2.09331,6.28382 8.79321,9.73262 14.1259,10.33722 4.04321,0.6398 10.35339,0.6946 14.87927,0.6568 11.12817,-0.093 24.86267,0.2592 36.05696,-0.018 l 0.20145,15.73205 c -19.47164,0 -38.94327,0 -58.4149,0 -2.90942,-1.05115 -3.8224,-0.227 -6.4621,-1.51065 -13.13776,-6.4143 -14.94652,-14.6276 -16.501,-24.63572 z"
       id="eeee"
       inkscape:connector-curvature="0"
       sodipodi:nodetypes="cccccccccscccccc"
       />
    <path
       class="c"
       d="m 666.52533,897.40953 59.40654,0 -0.25383,44.71129 c -4.61037,20.27922 -10.15745,21.00952 -17.17657,24.87402 -2.56901,2.0018 -4.3149,2.1641 -7.47909,2.1641 l -60.7605,0 0,-41.21912 c 2.48423,-12.87279 6.50023,-18.01589 10.55589,-21.52379 4.16251,-3.6003 5.22099,-5.541 15.70756,-9.0065 z"
       id="lastobig"
       inkscape:connector-curvature="0"
       sodipodi:nodetypes="cccccccsc"
       />
    <path
       class="c"
       d="m 673.81177,914.87773 36.70174,-0.7022 0,23.88119 c -2.87285,10.71262 -6.32945,11.09852 -10.70326,13.13992 -1.60082,1.0575 -2.68874,1.1432 -4.66046,1.1432 l -37.86176,0 0,-21.77442 c 1.548,-6.8 4.05049,-9.51699 6.57771,-11.36999 2.59379,-1.902 3.41152,-2.487 9.94603,-4.3177 z"
       id="lasto"
       inkscape:connector-curvature="0"
       sodipodi:nodetypes="cccccccsc"
       />
    <path
       class="c"
       d="m 490.11777,897.44333 c 20.6522,-1.0276 40.79783,0 61.47094,0 l -0.11789,18.5515 -29.88577,-0.2086 -0.0168,54.04356 -16.43202,0.072 -0.25488,-54.10086 c -8.45353,0.8547 -19.22252,-2.1032 -20.68926,10.82919 l -14.90587,-0.5273 c 1.40501,-13.96649 4.64287,-25.12599 20.8308,-28.66029 z"
       id="firstt"
       inkscape:connector-curvature="0"
       sodipodi:nodetypes="cccccccccc"
 />
    <path
       class="c"
       d="m 576.17029,897.44333 c 20.6522,-1.0276 41.08268,0 61.75581,0 l -0.11788,18.2241 -29.88579,-0.2086 0.55385,54.37096 -17.00176,0 -0.25487,-54.35576 c -8.45355,0.8549 -19.22253,-2.103 -20.68925,10.82919 l -14.90587,-0.5271 c 1.40501,-13.96659 4.358,-24.79879 20.5459,-28.33279 z"
       id="lastt"
       inkscape:connector-curvature="0"
       sodipodi:nodetypes="cccccccccc"
        />
  </g>
</svg>
